<?xml version="1.0" encoding="UTF-8"?>
<svg version="1.1" xmlns="http://www.w3.org/2000/svg" width="375" height="375">
<path d="M0 0 C7.85849333 5.20261364 12.03670077 14.4026738 13.9140625 23.375 C14.34367109 26.74447916 14.40964816 29.97948011 14.375 33.375 C14.36597656 34.52742188 14.35695313 35.67984375 14.34765625 36.8671875 C14.33605469 37.73601562 14.32445312 38.60484375 14.3125 39.5 C15.64667969 39.68369141 15.64667969 39.68369141 17.0078125 39.87109375 C20.0535805 40.45072572 22.39798623 41.25227383 25.1875 42.5625 C25.96867187 42.92472656 26.74984375 43.28695312 27.5546875 43.66015625 C28.13476562 43.93730469 28.71484375 44.21445313 29.3125 44.5 C29.3125 45.16 29.3125 45.82 29.3125 46.5 C30.9625 46.83 32.6125 47.16 34.3125 47.5 C34.3125 48.16 34.3125 48.82 34.3125 49.5 C34.91320312 49.77070313 35.51390625 50.04140625 36.1328125 50.3203125 C44.05820239 54.60968122 47.99845074 64.53643026 51.09765625 72.5234375 C53.62925904 81.11213437 54.91524764 92.21755299 51.46484375 100.62890625 C49.11005954 104.45243722 45.79955524 107.61098683 41.53125 109.13671875 C27.78370969 111.38763644 17.36334161 107.63497391 5.3125 101.5 C4.6525 101.5 3.9925 101.5 3.3125 101.5 C2.6525 102.16 1.9925 102.82 1.3125 103.5 C0.6525 104.16 -0.0075 104.82 -0.6875 105.5 C-1.3475 105.5 -2.0075 105.5 -2.6875 105.5 C-2.6875 106.16 -2.6875 106.82 -2.6875 107.5 C-3.285625 107.603125 -3.88375 107.70625 -4.5 107.8125 C-6.73354511 108.32015225 -6.73354511 108.32015225 -8.02734375 109.91015625 C-14.39514907 116.00826629 -24.93997205 116.78986534 -33.3125 116.6484375 C-45.35930719 115.89551205 -56.59023 111.21724528 -65.9375 103.6875 C-69.17931964 99.63522545 -69.93000503 95.27112386 -69.6875 90.1875 C-68.31927266 80.9401704 -61.72414969 73.25725884 -54.6875 67.5 C-51.44027724 65.32899964 -48.1223647 63.35820549 -44.6875 61.5 C-44.7596875 60.51 -44.831875 59.52 -44.90625 58.5 C-45.10144344 55.77420129 -45.28102666 53.04790769 -45.44921875 50.3203125 C-45.57697383 48.2720426 -45.71214259 46.22381698 -45.89453125 44.1796875 C-46.551055 32.94583658 -40.74383663 21.49452409 -33.6875 13.12890625 C-24.8356847 3.75546612 -13.22357343 -5.37908072 0 0 Z M-9.6875 -0.5 C-5.6875 0.5 -5.6875 0.5 -5.6875 0.5 Z M-5.6875 0.5 C-4.965625 1.03625 -4.24375 1.5725 -3.5 2.125 C8.12173789 11.938912 9.38896304 24.17547851 11.3125 38.5 C11.6425 38.5 11.9725 38.5 12.3125 38.5 C12.925268 26.04038402 12.10209594 15.1085433 3.828125 5.05859375 C1.84103524 3.01516897 -0.07017046 1.63181818 -2.6875 0.5 C-3.6775 0.5 -4.6675 0.5 -5.6875 0.5 Z M-7.6875 2.5 C-6.98625 3.139375 -6.285 3.77875 -5.5625 4.4375 C4.06890335 14.17835111 6.3919918 25.35016741 8.3125 38.5 C8.6425 38.5 8.9725 38.5 9.3125 38.5 C10.06252273 26.93714954 8.28092382 16.30309269 0.875 7.0859375 C-0.87545084 5.3092299 -2.58918675 3.85242846 -4.6875 2.5 C-5.6775 2.5 -6.6675 2.5 -7.6875 2.5 Z M-13.6875 3.5 C-12.883125 4.0878125 -12.883125 4.0878125 -12.0625 4.6875 C-11.27875 5.285625 -10.495 5.88375 -9.6875 6.5 C-8.718125 7.180625 -7.74875 7.86125 -6.75 8.5625 C1.7288571 15.84534703 3.1589601 28.12932182 5.3125 38.5 C5.6425 38.5 5.9725 38.5 6.3125 38.5 C7.07763736 27.2142239 3.81352409 16.11503757 -3.6875 7.5 C-6.96215589 4.51714513 -9.11901989 3.5 -13.6875 3.5 Z M-19.6875 4.5 C-18.883125 4.87125 -18.883125 4.87125 -18.0625 5.25 C-9.31298894 9.85500582 -4.59876914 15.20748502 -1.4375 24.5625 C-0.83703281 26.53653587 -0.25219179 28.51543414 0.3125 30.5 C0.539375 31.26699219 0.76625 32.03398437 1 32.82421875 C1.45387842 34.37812194 1.88655682 35.93820836 2.3125 37.5 C2.6425 37.5 2.9725 37.5 3.3125 37.5 C3.06768921 26.1941927 -0.05429173 16.27371512 -7.9921875 7.9921875 C-11.67459824 4.75098726 -14.89401912 4.22608681 -19.6875 4.5 Z M-21.6875 6.5 C-20.11602338 7.54765108 -18.53483948 8.58628638 -16.890625 9.515625 C-7.47549097 15.46598971 -3.69278257 27.24668301 -0.6875 37.5 C-0.3575 37.5 -0.0275 37.5 0.3125 37.5 C-0.36003868 27.07565045 -3.51187405 18.2676151 -10.6875 10.5 C-14.24280035 7.4424417 -17.01783667 6.94900609 -21.6875 6.5 Z M-22.6875 8.5 C-22.6875 9.16 -22.6875 9.82 -22.6875 10.5 C-21.82125 10.850625 -20.955 11.20125 -20.0625 11.5625 C-10.03884486 17.31682054 -7.10215687 28.05425421 -3.6875 38.5 C-3.3575 38.5 -3.0275 38.5 -2.6875 38.5 C-3.23543204 29.00251124 -6.61294183 19.08098434 -13.6875 12.5 C-17.9233237 9.72931172 -17.9233237 9.72931172 -22.6875 8.5 Z M-24.6875 11.5 C-24.130625 12.056875 -23.57375 12.61375 -23 13.1875 C-22.236875 13.950625 -21.47375 14.71375 -20.6875 15.5 C-19.883125 16.2425 -19.07875 16.985 -18.25 17.75 C-12.58449691 23.8300521 -9.52626794 30.76078907 -6.6875 38.5 C-4.8419458 33.65542023 -7.12065072 30.04317427 -9.08984375 25.55078125 C-12.08737896 19.82688149 -16.25439644 15.03958628 -21.6875 11.5 C-22.6775 11.5 -23.6675 11.5 -24.6875 11.5 Z M-25.6875 14.5 C-25.6875 15.16 -25.6875 15.82 -25.6875 16.5 C-24.4190625 17.2115625 -24.4190625 17.2115625 -23.125 17.9375 C-16.2963716 22.24180131 -12.45835508 31.16538361 -9.6875 38.5 C-8.29781541 34.33094622 -9.5177866 32.23262277 -11.1796875 28.28125 C-13.94590069 23.17880495 -18.27717549 16.66207975 -23.96875 14.72265625 C-24.5359375 14.64917969 -25.103125 14.57570313 -25.6875 14.5 Z M-26.6875 17.5 C-25.59105614 20.19127129 -24.48436287 21.69764694 -22.375 23.75 C-18.15462925 28.06851891 -15.32347017 33.09565933 -12.6875 38.5 C-11.35490778 35.57318463 -11.35490778 35.57318463 -12.65625 33.046875 C-15.90704345 27.10920126 -19.20701729 21.63861194 -24.6875 17.5 C-25.3475 17.5 -26.0075 17.5 -26.6875 17.5 Z M-27.6875 20.5 C-26.99469381 24.06087483 -25.8202889 25.40122344 -23.1640625 27.86328125 C-20.06873496 31.29434537 -17.95165832 35.49298442 -15.6875 39.5 C-14.3505353 36.59456534 -14.3505353 36.59456534 -15.65625 34.23046875 C-19.08075028 28.54335221 -22.39591388 24.52160545 -27.6875 20.5 Z M-28.6875 24.5 C-27.22402394 29.02347147 -24.79804314 31.94509356 -21.6875 35.5 C-20.34976218 37.16313351 -19.01482954 38.82854798 -17.6875 40.5 C-18.02269474 35.13688421 -21.22884253 31.37175239 -24.6875 27.5 C-25.9939136 26.4650791 -27.32113947 25.45437764 -28.6875 24.5 Z M-29.6875 28.5 C-28.2235077 31.56875309 -26.54740364 34.40434743 -24.6875 37.25 C-24.171875 38.04921875 -23.65625 38.8484375 -23.125 39.671875 C-22.650625 40.27515625 -22.17625 40.8784375 -21.6875 41.5 C-21.0275 41.5 -20.3675 41.5 -19.6875 41.5 C-21.18943475 36.15978754 -24.86232506 32.36352256 -28.6875 28.5 C-29.0175 28.5 -29.3475 28.5 -29.6875 28.5 Z M-28.6875 34.5 C-27.24496343 37.86591866 -25.35485273 40.01047079 -22.6875 42.5 C-23.95691497 38.58597051 -25.19917694 36.70927127 -28.6875 34.5 Z M-28.6875 39.5 C-27.3785428 42.62197478 -27.3785428 42.62197478 -24.6875 44.5 C-25.9964572 41.37802522 -25.9964572 41.37802522 -28.6875 39.5 Z M-28.6875 43.5 C-27.6875 45.5 -27.6875 45.5 -27.6875 45.5 Z M-30.6875 54.5 C-30.6875 55.16 -30.6875 55.82 -30.6875 56.5 C-30.0275 56.17 -29.3675 55.84 -28.6875 55.5 C-29.3475 55.17 -30.0075 54.84 -30.6875 54.5 Z M19.3125 59.5 C19.3125 60.16 19.3125 60.82 19.3125 61.5 C20.3025 61.17 21.2925 60.84 22.3125 60.5 C21.3225 60.17 20.3325 59.84 19.3125 59.5 Z M19.3125 62.5 C19.3125 63.16 19.3125 63.82 19.3125 64.5 C21.9525 64.17 24.5925 63.84 27.3125 63.5 C27.3125 63.17 27.3125 62.84 27.3125 62.5 C24.6725 62.5 22.0325 62.5 19.3125 62.5 Z M-43.6875 62.5 C-54.17950544 69.132877 -63.65342892 75.19790035 -67.6875 87.5 C-68.04787379 90.88658957 -68.01177768 94.11309976 -67.6875 97.5 C-67.3575 97.5 -67.0275 97.5 -66.6875 97.5 C-66.54054687 96.73816406 -66.39359375 95.97632813 -66.2421875 95.19140625 C-63.52636369 82.68925182 -57.67152361 75.3796256 -47.6875 67.5 C-46.03993155 66.46883755 -44.37838987 65.45847233 -42.6875 64.5 C-43.0175 63.84 -43.3475 63.18 -43.6875 62.5 Z M20.3125 66.5 C23.2825 66.5 26.2525 66.5 29.3125 66.5 C29.6425 65.84 29.9725 65.18 30.3125 64.5 C26.01236566 64.30453935 24.30360319 64.5044484 20.3125 66.5 Z M-42.6875 65.5 C-51.76656772 71.62503282 -61.58413003 78.44424449 -64.6875 89.5 C-64.8994259 92.85138629 -64.86959136 96.14817008 -64.6875 99.5 C-64.3575 99.5 -64.0275 99.5 -63.6875 99.5 C-63.54054687 98.73816406 -63.39359375 97.97632813 -63.2421875 97.19140625 C-60.63083332 85.17017234 -54.52757409 75.9787028 -44.25 69.0625 C-43.404375 68.546875 -42.55875 68.03125 -41.6875 67.5 C-42.0175 66.84 -42.3475 66.18 -42.6875 65.5 Z M25.625 67.5 C24.13419922 67.7784375 24.13419922 67.7784375 22.61328125 68.0625 C21.85402344 68.206875 21.09476562 68.35125 20.3125 68.5 C20.3125 68.83 20.3125 69.16 20.3125 69.5 C22.08324917 69.52705729 23.85411711 69.54642195 25.625 69.5625 C26.61113281 69.57410156 27.59726563 69.58570313 28.61328125 69.59765625 C31.41213849 69.62329862 31.41213849 69.62329862 34.3125 68.5 C34.3125 67.84 34.3125 67.18 34.3125 66.5 C31.26688718 66.5 28.61424598 66.9373184 25.625 67.5 Z M-41.6875 68.5 C-54.1833378 78.00040059 -54.1833378 78.00040059 -61.6875 91.5 C-62.28647014 96.53134913 -62.54552898 100.21295653 -59.6875 104.5 C-59.67332031 103.74976563 -59.65914062 102.99953125 -59.64453125 102.2265625 C-59.16110663 91.85253145 -56.02070048 83.99986412 -48.6875 76.5 C-45.75496291 74.07187907 -42.75298055 71.75736912 -39.6875 69.5 C-40.3475 69.17 -41.0075 68.84 -41.6875 68.5 Z M26 70.5 C24.74574219 70.685625 23.49148437 70.87125 22.19921875 71.0625 C21.24660156 71.206875 20.29398437 71.35125 19.3125 71.5 C19.6425 72.16 19.9725 72.82 20.3125 73.5 C22.37559376 73.38521587 24.43798354 73.25773802 26.5 73.125 C27.64855469 73.05539063 28.79710937 72.98578125 29.98046875 72.9140625 C33.11209117 72.52490426 35.46535809 71.8190149 38.3125 70.5 C38.3125 70.17 38.3125 69.84 38.3125 69.5 C34.11440075 69.37156867 30.14956468 69.87950435 26 70.5 Z M-39.6875 70.5 C-47.84717743 77.44496817 -55.19175448 84.01276344 -58.6875 94.5 C-58.80382729 96.01766539 -58.86246239 97.5404346 -58.875 99.0625 C-58.88917969 99.84753906 -58.90335938 100.63257813 -58.91796875 101.44140625 C-58.87917509 103.7243545 -58.87917509 103.7243545 -56.6875 105.5 C-56.58953125 104.654375 -56.4915625 103.80875 -56.390625 102.9375 C-54.57818721 89.18797191 -49.52768086 81.01728496 -38.6875 72.5 C-39.0175 71.84 -39.3475 71.18 -39.6875 70.5 Z M34.3125 72.375 C29.01830968 73.66584047 23.73788387 74.11464563 18.3125 74.5 C18.3125 74.83 18.3125 75.16 18.3125 75.5 C22.44780388 76.53578769 26.12975843 76.52242192 30.375 76.25 C31.58285156 76.18296875 32.79070312 76.1159375 34.03515625 76.046875 C37.38441647 75.48799964 38.85857589 74.77645827 41.3125 72.5 C38.11060566 71.43270189 37.41887562 71.5413036 34.3125 72.375 Z M-44.5 78.9375 C-50.880345 85.43770697 -55.39670153 91.87789616 -55.875 101.125 C-56.05971208 104.57231782 -56.05971208 104.57231782 -53.6875 106.5 C-53.54054687 105.33984375 -53.54054687 105.33984375 -53.390625 104.15625 C-51.76359492 92.8231439 -48.47398406 86.91255107 -40.61328125 78.6015625 C-38.6481803 76.65015996 -38.6481803 76.65015996 -37.6875 74.5 C-40.92792531 74.5 -42.25182647 76.72303222 -44.5 78.9375 Z M11.3125 75.5 C12.3125 77.5 12.3125 77.5 12.3125 77.5 Z M-40.45703125 79.1171875 C-47.20784011 86.57792845 -52.50925433 94.16175104 -52.6875 104.5 C-51.89964647 106.9237259 -51.89964647 106.9237259 -50.6875 108.5 C-49.51885726 106.16271452 -49.58744502 104.66503023 -49.5 102.0625 C-48.62059301 92.5401712 -42.54158874 84.7449538 -36.6875 77.5 C-38.84097627 77.27512766 -38.84097627 77.27512766 -40.45703125 79.1171875 Z M38.24609375 75.4609375 C33.97769102 76.71589438 29.80115565 76.94294733 25.375 77.125 C24.59576172 77.16367188 23.81652344 77.20234375 23.01367188 77.2421875 C21.11362621 77.33544127 19.21309722 77.41875962 17.3125 77.5 C18.6325 78.16 19.9525 78.82 21.3125 79.5 C19.6625 79.83 18.0125 80.16 16.3125 80.5 C23.44639747 84.46508196 31.08641048 83.67206283 38.8671875 82.265625 C41.52313849 81.43404929 43.20066931 80.28768923 45.3125 78.5 C44.9825 77.84 44.6525 77.18 44.3125 76.5 C42.6728125 77.2425 42.6728125 77.2425 41 78 C37.3125 79.5 37.3125 79.5 34.3125 79.5 C37.2825 78.51 40.2525 77.52 43.3125 76.5 C43.3125 75.84 43.3125 75.18 43.3125 74.5 C41.09500591 74.40032124 41.09500591 74.40032124 38.24609375 75.4609375 Z M-35.6875 79.5 C-42.41826484 85.15543554 -47.95243083 92.56528367 -49.05859375 101.49609375 C-49.06195464 103.86552373 -48.96840526 106.14871892 -48.6875 108.5 C-48.0275 108.5 -47.3675 108.5 -46.6875 108.5 C-46.61273438 107.76136719 -46.53796875 107.02273437 -46.4609375 106.26171875 C-45.18976056 96.45371628 -42.00954481 88.34658736 -34.6875 81.5 C-35.0175 80.84 -35.3475 80.18 -35.6875 79.5 Z M-33.6875 81.5 C-41.01799514 89.16369947 -45.1709944 96.82555092 -45.6875 107.5 C-45.0275 107.83 -44.3675 108.16 -43.6875 108.5 C-43.54054687 107.76136719 -43.39359375 107.02273437 -43.2421875 106.26171875 C-41.5248402 98.49417664 -38.71378468 92.31888882 -34.6875 85.5 C-34.0083102 84.1730021 -33.3367147 82.84191747 -32.6875 81.5 C-33.0175 81.5 -33.3475 81.5 -33.6875 81.5 Z M43.5625 80.9375 C35.02341258 85.04283049 24.45089043 84.20016566 15.3125 82.5 C16.22036785 84.90165288 16.22036785 84.90165288 19.625 85.625 C27.77724364 87.45121945 37.89539067 87.95691771 45.3125 83.5 C46.57515537 81.4768078 46.57515537 81.4768078 47.3125 79.5 C45.94302959 79.42279097 45.94302959 79.42279097 43.5625 80.9375 Z M-31.6875 83.5 C-37.64230163 90.78470733 -42.51374087 97.7916698 -41.6875 107.5 C-41.0275 107.5 -40.3675 107.5 -39.6875 107.5 C-39.54054687 106.74976563 -39.39359375 105.99953125 -39.2421875 105.2265625 C-37.75375622 98.43452552 -35.71041124 93.21942654 -31.796875 87.4609375 C-31.43078125 86.81382812 -31.0646875 86.16671875 -30.6875 85.5 C-31.0175 84.84 -31.3475 84.18 -31.6875 83.5 Z M-29.6875 85.5 C-36.20635174 95.28256083 -36.20635174 95.28256083 -38.6875 106.5 C-38.0275 106.5 -37.3675 106.5 -36.6875 106.5 C-36.36136719 105.54738281 -36.03523438 104.59476563 -35.69921875 103.61328125 C-35.25810497 102.34625231 -34.81668229 101.07933087 -34.375 99.8125 C-33.94574219 98.57113281 -33.51648438 97.32976562 -33.07421875 96.05078125 C-31.6875 92.5 -31.6875 92.5 -29.95703125 89.66796875 C-29.53808594 88.95253906 -29.11914062 88.23710937 -28.6875 87.5 C-29.0175 86.84 -29.3475 86.18 -29.6875 85.5 Z M47.3125 82.5 C46.17941406 83.15355469 45.04632813 83.80710937 43.87890625 84.48046875 C39.22906679 86.80078265 35.37116592 87.00796435 30.25 86.8125 C29.1043457 86.79799805 29.1043457 86.79799805 27.93554688 86.78320312 C23.31855264 86.69236406 18.86842461 86.24419486 14.3125 85.5 C18.17833002 90.06643351 23.76865912 90.1207698 29.4296875 90.7265625 C36.16569686 91.02413721 43.26618672 89.10750343 48.3125 84.5 C47.8175 83.51 47.8175 83.51 47.3125 82.5 Z M-27.6875 88.5 C-31.79933043 93.75798525 -33.67313222 98.95959881 -34.6875 105.5 C-34.0275 105.5 -33.3675 105.5 -32.6875 105.5 C-31.87207569 103.41780951 -31.06026811 101.33420239 -30.25 99.25 C-29.79753906 98.08984375 -29.34507812 96.9296875 -28.87890625 95.734375 C-27.98599367 93.31033692 -27.22955635 91.01713525 -26.6875 88.5 C-27.0175 88.5 -27.3475 88.5 -27.6875 88.5 Z M46.6875 86.875 C39.98872374 91.45837323 32.13542996 91.01187073 24.3125 90.5 C21.8359375 90.01171875 21.8359375 90.01171875 19.75 89.4375 C16.38715562 88.52036062 15.4537187 88.51708036 12.3125 89.5 C22.37261221 93.24329757 33.7640954 96.44294387 44.0625 91.75 C47.20342016 89.57551681 47.89462957 88.80836433 49.3125 85.5 C48.08495216 85.39234296 48.08495216 85.39234296 46.6875 86.875 Z M-9.6875 89.5 C-8.6875 91.5 -8.6875 91.5 -8.6875 91.5 Z M-25.6875 90.5 C-26.52819415 92.10032137 -27.35981505 93.70541171 -28.1875 95.3125 C-28.6515625 96.20582031 -29.115625 97.09914063 -29.59375 98.01953125 C-30.88923141 100.50568026 -30.88923141 100.50568026 -30.6875 103.5 C-30.0275 103.5 -29.3675 103.5 -28.6875 103.5 C-27.0375 99.21 -25.3875 94.92 -23.6875 90.5 C-24.3475 90.5 -25.0075 90.5 -25.6875 90.5 Z M-7.6875 90.5 C-6.6875 93.5 -6.6875 93.5 -6.6875 93.5 Z M46.8125 90.875 C39.43500678 95.67037059 30.6653346 94.74257044 22.3125 93.5 C18.59020634 92.65704911 14.94835622 91.65851932 11.3125 90.5 C11.3125 91.16 11.3125 91.82 11.3125 92.5 C13.03994016 93.15043719 14.7695369 93.79514844 16.5 94.4375 C17.46292969 94.79714844 18.42585938 95.15679687 19.41796875 95.52734375 C28.48459038 98.57402227 36.42586911 98.29656801 45.28125 94.765625 C47.6479235 93.29100535 48.32034299 92.06666706 49.3125 89.5 C48.09621693 89.38737923 48.09621693 89.38737923 46.8125 90.875 Z M-22.6875 91.5 C-23.38460731 92.78650706 -24.06992876 94.07940665 -24.75 95.375 C-25.13285156 96.09429687 -25.51570313 96.81359375 -25.91015625 97.5546875 C-26.16667969 98.19664062 -26.42320312 98.83859375 -26.6875 99.5 C-26.3575 100.16 -26.0275 100.82 -25.6875 101.5 C-24.99039269 100.21349294 -24.30507124 98.92059335 -23.625 97.625 C-23.24214844 96.90570313 -22.85929687 96.18640625 -22.46484375 95.4453125 C-22.08005859 94.48238281 -22.08005859 94.48238281 -21.6875 93.5 C-22.0175 92.84 -22.3475 92.18 -22.6875 91.5 Z M-19.6875 92.5 C-20.6775 94.48 -21.6675 96.46 -22.6875 98.5 C-22.0275 98.5 -21.3675 98.5 -20.6875 98.5 C-20.0275 96.52 -19.3675 94.54 -18.6875 92.5 C-19.0175 92.5 -19.3475 92.5 -19.6875 92.5 Z M-17.6875 93.5 C-17.3575 94.16 -17.0275 94.82 -16.6875 95.5 C-16.3575 94.84 -16.0275 94.18 -15.6875 93.5 C-16.3475 93.5 -17.0075 93.5 -17.6875 93.5 Z M9.3125 93.5 C17.21336624 99.77052877 26.31968368 101.83641651 36.3125 101.5 C39.52970364 100.90304012 42.46747614 100.14060872 45.3125 98.5 C45.9725 97.51 46.6325 96.52 47.3125 95.5 C45.81783203 95.98339844 45.81783203 95.98339844 44.29296875 96.4765625 C34.3768099 99.29124713 24.10736785 98.12471992 14.66796875 94.375 C12.26258447 93.32588722 12.26258447 93.32588722 9.3125 93.5 Z M7.3125 95.5 C11.50623342 100.83747889 18.79153238 103.23748183 25.3125 104.5 C32.90926959 105.02252913 39.45575091 104.99306086 46.3125 101.5 C46.9725 100.51 47.6325 99.52 48.3125 98.5 C47.54679687 98.82484375 47.54679687 98.82484375 46.765625 99.15625 C35.27719288 103.55607507 25.61839991 101.43902364 14.3125 97.5 C12.87869197 97.07080088 11.44190043 96.65117391 10 96.25 C8.6696875 95.87875 8.6696875 95.87875 7.3125 95.5 Z M5.3125 98.5 C8.80106242 101.50760253 12.04706733 103.46282888 16.3125 105.1875 C17.323125 105.60386719 18.33375 106.02023438 19.375 106.44921875 C26.05793266 108.83978908 33.98544595 110.05312755 40.8046875 107.60546875 C42.68714531 106.65754071 44.5082104 105.5893824 46.3125 104.5 C44.18310172 103.14973223 44.18310172 103.14973223 41.1875 104.4375 C29.98087714 107.7903011 18.2437465 103.83344719 8.3125 98.5 C7.3225 98.5 6.3325 98.5 5.3125 98.5 Z " fill="#000000" transform="translate(195.6875,101.5)"/>
<path d="M0 0 C1.02673828 0.01450195 1.02673828 0.01450195 2.07421875 0.02929688 C7.08080832 0.14330832 7.08080832 0.14330832 8.25 1.3125 C8.29092937 3.64547433 8.29241723 5.97955225 8.25 8.3125 C7.26 8.3125 6.27 8.3125 5.25 8.3125 C4.693125 7.6525 4.13625 6.9925 3.5625 6.3125 C0.99673258 4.09345791 0.42517808 4.01778944 -2.8125 4 C-6.65086312 4.14602093 -6.65086312 4.14602093 -9.75 5.3125 C-12.01386832 10.07853857 -12.39228325 15.11756196 -11.75 20.3125 C-10.85231637 22.83151018 -10.17947421 24.01034779 -7.984375 25.5546875 C-5.21566502 26.4937255 -2.91779379 26.50697128 0 26.4375 C0.98484375 26.41945313 1.9696875 26.40140625 2.984375 26.3828125 C3.73203125 26.35960937 4.4796875 26.33640625 5.25 26.3125 C5.25 24.0025 5.25 21.6925 5.25 19.3125 C2.61 19.3125 -0.03 19.3125 -2.75 19.3125 C-2.75 18.3225 -2.75 17.3325 -2.75 16.3125 C1.54 16.3125 5.83 16.3125 10.25 16.3125 C10.25 17.3025 10.25 18.2925 10.25 19.3125 C9.59 19.3125 8.93 19.3125 8.25 19.3125 C8.25 22.2825 8.25 25.2525 8.25 28.3125 C3.08187927 30.89656036 -1.06445302 30.84552003 -6.75 30.3125 C-11.37422478 28.5415203 -13.61353475 25.74368719 -15.75 21.3125 C-16.57915889 15.12144698 -16.45319692 9.54805427 -12.75 4.3125 C-8.72924338 0.26961078 -5.49496012 -0.23822081 0 0 Z " fill="#242424" transform="translate(205.75,229.6875)"/>
<path d="M0 0 C2.39652528 -0.08139142 4.79025436 -0.14067009 7.1875 -0.1875 C7.86103516 -0.21263672 8.53457031 -0.23777344 9.22851562 -0.26367188 C13.72333532 -0.32944972 16.41892067 0.27526573 20 3 C23.61242303 6.80768914 24.31685859 9.90361668 24.5 15 C24.32197155 20.31447905 23.59341964 23.09857296 20 27 C16.89914429 29.06723714 16.27068319 29.24497423 12.76953125 29.1953125 C11.96708984 29.18886719 11.16464844 29.18242187 10.33789062 29.17578125 C9.50451172 29.15902344 8.67113281 29.14226562 7.8125 29.125 C6.96751953 29.11597656 6.12253906 29.10695313 5.25195312 29.09765625 C3.16784757 29.07410703 1.08388783 29.03823647 -1 29 C-1 28.34 -1 27.68 -1 27 C-0.34 26.67 0.32 26.34 1 26 C1.33 18.41 1.66 10.82 2 3 C1.01 3 0.02 3 -1 3 C-0.67 2.01 -0.34 1.02 0 0 Z M5 3 C5 10.59 5 18.18 5 26 C15.19238476 27.09538242 15.19238476 27.09538242 19.1875 23.625 C21.89750538 19.43590744 21.99231028 14.78324565 21 10 C19.29568173 6.88585964 17.22380601 4.61190301 14 3 C11.03 3 8.06 3 5 3 Z " fill="#242424" transform="translate(132,230)"/>
<path d="M0 0 C6.27 0 12.54 0 19 0 C19 0.99 19 1.98 19 3 C16.36 3 13.72 3 11 3 C11 10.59 11 18.18 11 26 C13.31 26 15.62 26 18 26 C18.33 26.99 18.66 27.98 19 29 C12.4 29 5.8 29 -1 29 C-1 28.34 -1 27.68 -1 27 C1 26 1 26 8 26 C8 18.41 8 10.82 8 3 C5.03 3 2.06 3 -1 3 C-0.67 2.01 -0.34 1.02 0 0 Z " fill="#242424" transform="translate(223,230)"/>
<path d="M0 0 C6.27 0 12.54 0 19 0 C19 0.99 19 1.98 19 3 C16.36 3 13.72 3 11 3 C11 10.59 11 18.18 11 26 C13.31 26 15.62 26 18 26 C18.33 26.99 18.66 27.98 19 29 C12.73 29 6.46 29 0 29 C0.495 27.515 0.495 27.515 1 26 C3.31 26 5.62 26 8 26 C8 18.41 8 10.82 8 3 C5.36 3 2.72 3 0 3 C0 2.01 0 1.02 0 0 Z " fill="#242424" transform="translate(163,230)"/>
<path d="M0 0 C1.32 0.33 2.64 0.66 4 1 C4.33 2.32 4.66 3.64 5 5 C5.66 5 6.32 5 7 5 C7.33 3.35 7.66 1.7 8 0 C9.32 0 10.64 0 12 0 C12 3.96 12 7.92 12 12 C10.35 12 8.7 12 7 12 C7.66 11.67 8.32 11.34 9 11 C8.67 9.68 8.34 8.36 8 7 C7.67 7.66 7.34 8.32 7 9 C6.01 8.67 5.02 8.34 4 8 C3.67 8.99 3.34 9.98 3 11 C3.66 11.33 4.32 11.66 5 12 C3.35 12 1.7 12 0 12 C0 8.04 0 4.08 0 0 Z " fill="#6D6D6D" transform="translate(211,276)"/>
<path d="M0 0 C6.0546875 -0.1953125 6.0546875 -0.1953125 8 0 C8.66 0.66 9.32 1.32 10 2 C9.70131344 4.00546689 9.36628677 6.00577205 9 8 C9.33 8.99 9.66 9.98 10 11 C10.66 11.33 11.32 11.66 12 12 C8 12 8 12 5.25 9.5 C4.5075 8.675 3.765 7.85 3 7 C3 8.32 3 9.64 3 11 C3.66 11.33 4.32 11.66 5 12 C3.35 12 1.7 12 0 12 C0 8.04 0 4.08 0 0 Z M3 2 C3 3.32 3 4.64 3 6 C4.65 5.34 6.3 4.68 8 4 C7.67 3.34 7.34 2.68 7 2 C5.68 2 4.36 2 3 2 Z " fill="#6D6D6D" transform="translate(192,276)"/>
<path d="M0 0 C3 0.25 3 0.25 5 2.25 C5.55427252 9.23383372 5.55427252 9.23383372 3.875 12.3125 C1.009198 13.745401 -0.99548152 13.09910305 -4 12.25 C-5.11445498 10.02109005 -5.16480286 8.71944894 -5.1875 6.25 C-5.20167969 5.54875 -5.21585938 4.8475 -5.23046875 4.125 C-4.80271725 0.64498783 -3.27487943 0.27290662 0 0 Z M-2 2.25 C-3.29042763 4.51601865 -3.29042763 4.51601865 -4 7.25 C-2.73647948 9.57511472 -2.73647948 9.57511472 -1 11.25 C0.32 10.92 1.64 10.59 3 10.25 C3.6878236 7.89632287 3.6878236 7.89632287 4 5.25 C3.34 4.26 2.68 3.27 2 2.25 C0.68 2.25 -0.64 2.25 -2 2.25 Z " fill="#6D6D6D" transform="translate(178,275.75)"/>
<path d="M0 0 C3.3 0 6.6 0 10 0 C10 1.32 10 2.64 10 4 C9.34 4 8.68 4 8 4 C8 3.34 8 2.68 8 2 C6.35 2 4.7 2 3 2 C3 2.99 3 3.98 3 5 C4.32 4.67 5.64 4.34 7 4 C7 5.32 7 6.64 7 8 C5.68 7.67 4.36 7.34 3 7 C3 8.32 3 9.64 3 11 C3.99 11.33 4.98 11.66 6 12 C4.02 12 2.04 12 0 12 C0 8.04 0 4.08 0 0 Z " fill="#6D6D6D" transform="translate(154,276)"/>
<path d="M0 0 C1.65 0.33 3.3 0.66 5 1 C5 3.64 5 6.28 5 9 C0.25 10.125 0.25 10.125 -2 9 C-2 8.01 -2 7.02 -2 6 C-1.34 6 -0.68 6 0 6 C0 6.66 0 7.32 0 8 C0.99 8 1.98 8 3 8 C3 7.34 3 6.68 3 6 C1.68 5.67 0.36 5.34 -1 5 C-0.67 3.35 -0.34 1.7 0 0 Z M1 2 C1 2.66 1 3.32 1 4 C1.66 4 2.32 4 3 4 C3 3.34 3 2.68 3 2 C2.34 2 1.68 2 1 2 Z " fill="#242424" transform="translate(83,212)"/>
<path d="M0 0 C2.64 0 5.28 0 8 0 C7.67 0.99 7.34 1.98 7 3 C6.67 2.34 6.34 1.68 6 1 C5.01 1 4.02 1 3 1 C3.66 1.33 4.32 1.66 5 2 C4.125 5.875 4.125 5.875 3 7 C3.99 7 4.98 7 6 7 C6 6.34 6 5.68 6 5 C6.66 5 7.32 5 8 5 C8 5.99 8 6.98 8 8 C5.36 8 2.72 8 0 8 C0 5.36 0 2.72 0 0 Z " fill="#242424" transform="translate(72,213)"/>
<path d="M0 0 C1.65 0 3.3 0 5 0 C6.23076923 5.41538462 6.23076923 5.41538462 5.0625 8.375 C4.711875 8.91125 4.36125 9.4475 4 10 C2.68 9.67 1.36 9.34 0 9 C-1.125 2.25 -1.125 2.25 0 0 Z M2 1 C0.70366379 2.06645115 0.70366379 2.06645115 0.9375 4.5625 C0.958125 5.366875 0.97875 6.17125 1 7 C1.99 7 2.98 7 4 7 C4 5.35 4 3.7 4 2 C3.34 1.67 2.68 1.34 2 1 Z " fill="#242424" transform="translate(281,212)"/>
<path d="M0 0 C1.65 0 3.3 0 5 0 C4.01 0.33 3.02 0.66 2 1 C2 1.66 2 2.32 2 3 C3.32 3.33 4.64 3.66 6 4 C5.67 5.65 5.34 7.3 5 9 C3.68 9.33 2.36 9.66 1 10 C0.34 9.01 -0.32 8.02 -1 7 C1.475 7.495 1.475 7.495 4 8 C4 7.01 4 6.02 4 5 C2.68 5 1.36 5 0 5 C0 3.35 0 1.7 0 0 Z " fill="#242424" transform="translate(298,212)"/>
<path d="M0 0 C1.65 0.33 3.3 0.66 5 1 C4.49396008 3.16874252 4.00016187 4.99967627 3 7 C3.66 7 4.32 7 5 7 C5 7.66 5 8.32 5 9 C2.69 9 0.38 9 -2 9 C-0.68 7.35 0.64 5.7 2 4 C1.67 3.34 1.34 2.68 1 2 C0.01 2.495 0.01 2.495 -1 3 C-0.67 2.01 -0.34 1.02 0 0 Z " fill="#242424" transform="translate(290,212)"/>
<path d="M0 0 C1.65 0.33 3.3 0.66 5 1 C4.49396008 3.16874252 4.00016187 4.99967627 3 7 C3.66 7 4.32 7 5 7 C5 7.66 5 8.32 5 9 C2.69 9 0.38 9 -2 9 C-0.68 7.35 0.64 5.7 2 4 C1.67 3.34 1.34 2.68 1 2 C0.01 2.495 0.01 2.495 -1 3 C-0.67 2.01 -0.34 1.02 0 0 Z " fill="#242424" transform="translate(273,212)"/>
<path d="M0 0 C2.31 0 4.62 0 7 0 C6.67 0.99 6.34 1.98 6 3 C6 2.34 6 1.68 6 1 C5.34 1 4.68 1 4 1 C4 2.98 4 4.96 4 7 C4.66 7.33 5.32 7.66 6 8 C4.35 8 2.7 8 1 8 C1.66 7.67 2.32 7.34 3 7 C3 5.02 3 3.04 3 1 C2.34 1 1.68 1 1 1 C0.67 1.66 0.34 2.32 0 3 C0 2.01 0 1.02 0 0 Z " fill="#242424" transform="translate(90,213)"/>
<path d="M0 0 C0.66 0 1.32 0 2 0 C2 0.99 2 1.98 2 3 C1.01 2.67 0.02 2.34 -1 2 C-0.67 1.34 -0.34 0.68 0 0 Z " fill="#242424" transform="translate(101,219)"/>
</svg>
